<svg width="423" height="188" viewBox="0 0 423 188" fill="none" xmlns="http://www.w3.org/2000/svg">
<path d="M26.2226 40.3562C23.5746 39.8285 21.3073 38.7819 19.4205 37.2166C17.5664 35.6577 16.2299 33.7602 15.411 31.5241C14.598 29.2552 14.4204 26.841 14.8781 24.2817C15.3359 21.7223 16.3322 19.5591 17.867 17.792C19.4077 15.9922 21.3076 14.7396 23.5666 14.0344C25.8642 13.3029 28.337 13.201 30.9849 13.7287C33.3387 14.1977 35.3458 15.0905 37.0062 16.4068C38.6994 17.7297 39.8913 19.3945 40.5819 21.4012L36.5886 23.0011C35.9943 21.5914 35.1482 20.4543 34.0501 19.5898C32.9521 18.7253 31.6675 18.1465 30.1965 17.8533C28.4966 17.5145 26.8926 17.5857 25.3846 18.0668C23.9093 18.5544 22.6532 19.4255 21.6163 20.6801C20.6179 21.9084 19.9574 23.4248 19.6346 25.2295C19.306 27.0671 19.3914 28.7662 19.8909 30.327C20.429 31.8615 21.3007 33.1396 22.5061 34.1614C23.7441 35.1897 25.2131 35.8732 26.913 36.212C28.384 36.5052 29.7801 36.4605 31.1012 36.0781C32.4222 35.6957 33.6029 34.9625 34.6432 33.8785L37.8178 36.8559C36.4816 38.4587 34.7939 39.5666 32.7544 40.1796C30.7536 40.7664 28.5763 40.8252 26.2226 40.3562ZM51.3551 22.5796C52.4423 21.2331 53.8573 20.3257 55.6 19.8574C57.3426 19.3891 59.3581 19.383 61.6465 19.839L60.8278 24.4164C60.5722 24.3314 60.2155 24.2434 59.7578 24.1522C57.208 23.644 55.0596 24.0145 53.3127 25.2635C51.6043 26.4862 50.4978 28.5085 49.9931 31.3304L47.6692 44.3242L42.9617 43.3861L47.6273 17.3001L52.1386 18.1991L51.3551 22.5796ZM88.2939 39.0651C88.2294 39.426 88.1116 39.8953 87.9406 40.4729L66.8552 36.2709C66.7386 38.6264 67.4041 40.679 68.8516 42.4287C70.3378 44.1522 72.3557 45.2679 74.9056 45.7761C78.0112 46.395 80.6998 45.8433 82.9715 44.1212L85.0246 47.6907C83.6012 48.8343 81.9424 49.5911 80.048 49.9612C78.1863 50.3378 76.1766 50.3111 74.019 49.8812C71.273 49.3339 68.9374 48.2908 67.012 46.7517C65.0925 45.1798 63.7263 43.2594 62.9133 40.9905C62.133 38.7281 61.9717 36.3172 62.4294 33.7578C62.8813 31.2312 63.8449 29.0615 65.3203 27.2486C66.8283 25.4422 68.6628 24.1767 70.8237 23.4519C73.0233 22.7009 75.3653 22.5729 77.8497 23.068C80.3342 23.5631 82.4381 24.5771 84.1615 26.1099C85.9234 27.6164 87.1618 29.4943 87.8767 31.7437C88.6243 33.9996 88.7634 36.44 88.2939 39.0651ZM77.1367 27.0548C74.8811 26.6052 72.8618 26.9165 71.0788 27.9884C69.3286 29.0669 68.1232 30.6957 67.4626 32.8748L84.1347 36.1973C84.2664 33.9467 83.6873 31.9793 82.3973 30.2949C81.1459 28.5843 79.3924 27.5043 77.1367 27.0548ZM105.979 28.6738C109.575 29.3904 112.163 30.8235 113.742 32.9733C115.354 35.1295 115.846 37.9631 115.218 41.4741L112.401 57.2242L107.939 56.3349L108.555 52.8896C107.553 53.9473 106.258 54.6577 104.67 55.0208C103.12 55.3576 101.348 55.3273 99.3537 54.9299C96.4442 54.3501 94.233 53.1788 92.7201 51.4161C91.2399 49.6599 90.7051 47.6333 91.1159 45.3364C91.5267 43.0395 92.689 41.3682 94.6027 40.3223C96.5223 39.2436 99.2964 39.0658 102.925 39.7889L110.378 41.2743L110.546 40.3391C110.91 38.3047 110.6 36.6288 109.617 35.3115C108.633 33.9942 106.998 33.1075 104.709 32.6514C103.173 32.3453 101.622 32.3081 100.057 32.5399C98.4982 32.739 97.1356 33.1641 95.9696 33.8152L94.642 29.8806C96.176 29.0649 97.9245 28.5638 99.8876 28.3773C101.857 28.158 103.887 28.2568 105.979 28.6738ZM100.79 51.444C102.588 51.8024 104.211 51.718 105.659 51.1911C107.114 50.6314 108.267 49.6719 109.12 48.3126L109.771 44.6704L102.514 43.2241C98.5255 42.4293 96.2908 43.3773 95.8095 46.0679C95.5748 47.3804 95.8966 48.515 96.7751 49.4716C97.6535 50.4283 98.9917 51.0857 100.79 51.444ZM135.998 60.3465C135.206 60.8003 134.274 61.0903 133.202 61.2165C132.135 61.3098 131.063 61.249 129.984 61.034C127.369 60.5128 125.468 59.4035 124.282 57.7059C123.096 56.0083 122.738 53.847 123.207 51.222L125.769 36.8993L121.356 36.0198L122.051 32.1315L126.465 33.011L127.486 27.3015L132.193 28.2397L131.172 33.9491L138.625 35.4344L137.93 39.3227L130.477 37.8374L127.95 51.9632C127.698 53.3742 127.847 54.5254 128.399 55.4169C128.983 56.3149 129.929 56.8942 131.237 57.1548C132.675 57.4414 133.974 57.2756 135.134 56.6572L135.998 60.3465ZM146.082 36.9203L150.789 37.8585L146.124 63.9445L141.416 63.0064L146.082 36.9203ZM149.334 32.3691C148.418 32.1867 147.703 31.7382 147.187 31.0238C146.705 30.316 146.539 29.5354 146.692 28.6823C146.845 27.8292 147.268 27.1659 147.962 26.6926C148.695 26.1929 149.519 26.0343 150.434 26.2167C151.349 26.3991 152.048 26.8443 152.531 27.5521C153.052 28.2337 153.237 29.0011 153.084 29.8542C152.926 30.7402 152.48 31.433 151.748 31.9326C151.054 32.406 150.249 32.5515 149.334 32.3691ZM182.775 44.2327L166.733 68.0516L161.928 67.094L155.217 38.7408L160.121 39.718L165.304 62.4146L178.166 43.3141L182.775 44.2327ZM207.579 62.8365C207.515 63.1974 207.397 63.6667 207.226 64.2443L186.14 60.0424C186.024 62.3979 186.689 64.4505 188.137 66.2002C189.623 67.9236 191.641 69.0394 194.191 69.5475C197.296 70.1664 199.985 69.6148 202.257 67.8926L204.31 71.4621C202.887 72.6057 201.228 73.3626 199.333 73.7327C197.472 74.1093 195.462 74.0826 193.304 73.6526C190.558 73.1054 188.223 72.0622 186.297 70.5231C184.378 68.9512 183.012 67.0308 182.199 64.7619C181.418 62.4995 181.257 60.0886 181.715 57.5292C182.167 55.0027 183.13 52.8329 184.606 51.0201C186.114 49.2137 187.948 47.9481 190.109 47.2234C192.309 46.4723 194.651 46.3444 197.135 46.8395C199.62 47.3346 201.723 48.3485 203.447 49.8813C205.209 51.3879 206.447 53.2658 207.162 55.5152C207.91 57.771 208.049 60.2115 207.579 62.8365ZM196.422 50.8262C194.166 50.3767 192.147 50.6879 190.364 51.7599C188.614 52.8383 187.408 54.4671 186.748 56.6463L203.42 59.9687C203.552 57.7182 202.973 55.7507 201.683 54.0664C200.431 52.3558 198.678 51.2757 196.422 50.8262ZM262.199 59.8055C265.468 60.457 267.88 61.9232 269.436 64.2042C271.024 66.4917 271.484 69.5057 270.815 73.2464L268.13 88.2582L263.422 87.3201L266.01 72.8497C266.462 70.3231 266.214 68.3027 265.266 66.7885C264.351 65.2808 262.815 64.3119 260.657 63.882C258.271 63.4064 256.24 63.7832 254.564 65.0125C252.894 66.2089 251.81 68.2017 251.311 70.9908L248.908 84.4276L244.2 83.4894L246.788 69.0191C247.24 66.4925 246.992 64.4721 246.044 62.9579C245.129 61.4502 243.593 60.4813 241.435 60.0514C239.049 59.5758 237.018 59.9526 235.342 61.1819C233.672 62.3783 232.588 64.3711 232.089 67.1602L229.686 80.5969L224.978 79.6588L229.644 53.5728L234.155 54.4718L233.46 58.3601C234.648 57.2037 236.073 56.4341 237.732 56.0512C239.398 55.6355 241.211 55.6231 243.173 56.014C245.2 56.4179 246.924 57.1863 248.347 58.3194C249.769 59.4524 250.764 60.8911 251.333 62.6355C252.583 61.3215 254.151 60.4106 256.036 59.9028C257.954 59.4014 260.008 59.369 262.199 59.8055ZM288.014 92.5265C285.431 92.0118 283.213 90.9751 281.359 89.4162C279.504 87.8573 278.168 85.9598 277.349 83.7237C276.569 81.4613 276.407 79.0505 276.865 76.4911C277.323 73.9317 278.303 71.7652 279.805 69.9916C281.346 68.1918 283.246 66.9393 285.505 66.234C287.77 65.496 290.193 65.3843 292.776 65.899C295.358 66.4137 297.56 67.4472 299.382 68.9995C301.242 70.5256 302.562 72.4198 303.342 74.6822C304.161 76.9183 304.342 79.316 303.884 81.8754C303.426 84.4348 302.427 86.6144 300.886 88.4143C299.384 90.1878 297.501 91.4436 295.236 92.1817C293.003 92.9262 290.596 93.0411 288.014 92.5265ZM288.753 88.3921C290.42 88.7243 291.975 88.6434 293.418 88.1493C294.899 87.6289 296.139 86.7545 297.137 85.5262C298.141 84.2651 298.805 82.7322 299.127 80.9275C299.45 79.1228 299.359 77.4565 298.854 75.9285C298.354 74.3678 297.502 73.0765 296.296 72.0547C295.124 71.0394 293.704 70.3656 292.036 70.0334C290.369 69.7011 288.798 69.7788 287.323 70.2664C285.88 70.7605 284.64 71.6349 283.603 72.8895C282.605 74.1178 281.944 75.6343 281.622 77.4389C281.299 79.2436 281.387 80.9264 281.887 82.4872C282.425 84.0216 283.277 85.3129 284.444 86.361C285.649 87.3828 287.086 88.0598 288.753 88.3921ZM339.111 64.5813L332.579 101.102L328.068 100.203L328.807 96.0684C327.503 97.3037 325.983 98.1391 324.246 98.5745C322.509 99.01 320.676 99.0356 318.747 98.6512C316.23 98.1496 314.074 97.1423 312.28 95.6292C310.485 94.1162 309.195 92.2449 308.409 90.0153C307.661 87.7594 307.522 85.319 307.991 82.694C308.461 80.069 309.43 77.8664 310.9 76.0863C312.402 74.3128 314.25 73.0669 316.444 72.3486C318.637 71.6304 320.993 71.5221 323.51 72.0237C325.373 72.3951 327.025 73.098 328.465 74.1326C329.911 75.1344 331.034 76.4286 331.833 78.0152L334.404 63.6432L339.111 64.5813ZM319.879 94.595C321.514 94.9207 323.069 94.8398 324.544 94.3522C326.025 93.8318 327.265 92.9574 328.263 91.7292C329.267 90.468 329.931 88.9351 330.254 87.1304C330.576 85.3258 330.485 83.6594 329.98 82.1315C329.48 80.5707 328.628 79.2794 327.422 78.2576C326.217 77.2358 324.797 76.562 323.163 76.2363C321.495 75.9041 319.924 75.9817 318.449 76.4693C317.006 76.9634 315.767 77.8378 314.73 79.0924C313.731 80.3207 313.071 81.8372 312.748 83.6419C312.425 85.4466 312.514 87.1293 313.013 88.6901C313.551 90.2246 314.404 91.5158 315.57 92.5639C316.776 93.5857 318.212 94.2627 319.879 94.595ZM367.281 94.6622C367.216 95.0231 367.098 95.4924 366.927 96.07L345.842 91.8681C345.725 94.2236 346.391 96.2762 347.838 98.0259C349.325 99.7493 351.343 100.865 353.892 101.373C356.998 101.992 359.687 101.44 361.958 99.7183L364.011 103.288C362.588 104.431 360.929 105.188 359.035 105.558C357.173 105.935 355.163 105.908 353.006 105.478C350.26 104.931 347.924 103.888 345.999 102.349C344.079 100.777 342.713 98.8565 341.9 96.5876C341.12 94.3252 340.958 91.9143 341.416 89.3549C341.868 86.8284 342.832 84.6586 344.307 82.8458C345.815 81.0394 347.65 79.7738 349.811 79.0491C352.01 78.298 354.352 78.17 356.837 78.6652C359.321 79.1603 361.425 80.1742 363.148 81.707C364.91 83.2135 366.149 85.0915 366.864 87.3409C367.611 89.5967 367.75 92.0372 367.281 94.6622ZM356.124 82.6519C353.868 82.2024 351.849 82.5136 350.066 83.5855C348.315 84.664 347.11 86.2928 346.449 88.4719L363.122 91.7944C363.253 89.5439 362.674 87.5764 361.384 85.8921C360.133 84.1815 358.379 83.1014 356.124 82.6519ZM379.904 88.0537C380.992 86.7072 382.407 85.7998 384.149 85.3315C385.892 84.8632 387.907 84.857 390.196 85.3131L389.377 89.8904C389.122 89.8055 388.765 89.7174 388.307 89.6262C385.757 89.1181 383.609 89.4885 381.862 90.7376C380.154 91.9603 379.047 93.9826 378.542 96.8045L376.219 109.798L371.511 108.86L376.177 82.7742L380.688 83.6732L379.904 88.0537ZM409.875 89.2348C413.177 89.8927 415.619 91.3819 417.201 93.7022C418.822 95.9962 419.301 98.9971 418.638 102.705L415.953 117.717L411.246 116.779L413.834 102.308C414.286 99.7817 414.021 97.758 413.041 96.2373C412.06 94.7166 410.442 93.7314 408.186 93.2819C405.636 92.7738 403.491 93.1278 401.75 94.344C400.015 95.5275 398.898 97.5137 398.399 100.303L395.996 113.74L391.288 112.801L395.954 86.7154L400.465 87.6144L399.761 91.5519C400.949 90.3955 402.409 89.616 404.14 89.2133C405.904 88.8172 407.815 88.8243 409.875 89.2348ZM155.645 90.2071L149.113 126.728L144.602 125.829L145.341 121.694C144.037 122.929 142.516 123.765 140.78 124.2C139.043 124.636 137.21 124.661 135.281 124.277C132.764 123.775 130.608 122.768 128.814 121.255C127.019 119.742 125.729 117.871 124.942 115.641C124.195 113.385 124.056 110.945 124.525 108.32C124.995 105.695 125.964 103.492 127.434 101.712C128.936 99.9386 130.784 98.6927 132.977 97.9744C135.171 97.2562 137.526 97.1479 140.044 97.6495C141.907 98.0209 143.559 98.7238 144.999 99.7584C146.445 100.76 147.567 102.054 148.367 103.641L150.937 89.269L155.645 90.2071ZM136.413 120.221C138.048 120.547 139.602 120.466 141.078 119.978C142.559 119.458 143.799 118.583 144.797 117.355C145.801 116.094 146.465 114.561 146.788 112.756C147.11 110.952 147.019 109.285 146.514 107.757C146.014 106.196 145.162 104.905 143.956 103.883C142.751 102.862 141.331 102.188 139.696 101.862C138.029 101.53 136.458 101.608 134.983 102.095C133.54 102.589 132.3 103.464 131.263 104.718C130.265 105.946 129.605 107.463 129.282 109.268C128.959 111.072 129.047 112.755 129.547 114.316C130.085 115.85 130.937 117.142 132.104 118.19C133.31 119.212 134.746 119.889 136.413 120.221ZM183.815 120.288C183.75 120.649 183.632 121.118 183.461 121.696L162.376 117.494C162.259 119.849 162.925 121.902 164.372 123.652C165.858 125.375 167.876 126.491 170.426 126.999C173.532 127.618 176.22 127.066 178.492 125.344L180.545 128.914C179.122 130.057 177.463 130.814 175.569 131.184C173.707 131.561 171.697 131.534 169.54 131.104C166.794 130.557 164.458 129.514 162.533 127.975C160.613 126.403 159.247 124.482 158.434 122.213C157.654 119.951 157.492 117.54 157.95 114.981C158.402 112.454 159.366 110.284 160.841 108.472C162.349 106.665 164.183 105.4 166.344 104.675C168.544 103.924 170.886 103.796 173.37 104.291C175.855 104.786 177.959 105.8 179.682 107.333C181.444 108.839 182.682 110.717 183.397 112.967C184.145 115.223 184.284 117.663 183.815 120.288ZM172.657 108.278C170.402 107.828 168.382 108.139 166.599 109.211C164.849 110.29 163.644 111.919 162.983 114.098L179.655 117.42C179.787 115.17 179.208 113.202 177.918 111.518C176.666 109.807 174.913 108.727 172.657 108.278ZM195.445 136.267C193.321 135.843 191.327 135.157 189.466 134.208C187.61 133.227 186.205 132.182 185.252 131.075L187.883 127.725C188.88 128.774 190.152 129.707 191.699 130.525C193.245 131.343 194.852 131.918 196.519 132.25C200.638 133.071 202.909 132.3 203.332 129.937C203.473 129.15 203.306 128.471 202.833 127.901C202.359 127.331 201.715 126.863 200.9 126.496C200.124 126.104 198.991 125.623 197.502 125.055C195.468 124.309 193.819 123.59 192.555 122.896C191.324 122.209 190.325 121.263 189.559 120.057C188.793 118.85 188.574 117.329 188.903 115.491C189.326 113.129 190.644 111.437 192.857 110.417C195.077 109.364 197.838 109.167 201.14 109.825C202.872 110.17 204.567 110.729 206.223 111.501C207.879 112.272 209.199 113.13 210.181 114.073L207.501 117.413C205.623 115.612 203.245 114.424 200.369 113.851C198.375 113.454 196.796 113.479 195.632 113.927C194.469 114.374 193.79 115.14 193.597 116.223C193.444 117.076 193.618 117.807 194.118 118.416C194.619 119.026 195.273 119.53 196.082 119.929C196.924 120.335 198.103 120.842 199.619 121.45C201.647 122.227 203.26 122.957 204.458 123.637C205.696 124.292 206.684 125.202 207.423 126.369C208.162 127.536 208.374 129.005 208.057 130.777C207.634 133.14 206.283 134.824 204.004 135.831C201.764 136.812 198.911 136.957 195.445 136.267ZM217.276 113.295L221.984 114.234L217.318 140.32L212.611 139.382L217.276 113.295ZM220.528 108.744C219.612 108.562 218.897 108.113 218.382 107.399C217.899 106.691 217.734 105.911 217.886 105.057C218.039 104.204 218.462 103.541 219.156 103.068C219.889 102.568 220.713 102.409 221.628 102.592C222.544 102.774 223.243 103.219 223.725 103.927C224.247 104.609 224.431 105.376 224.279 106.229C224.12 107.115 223.675 107.808 222.942 108.308C222.248 108.781 221.443 108.927 220.528 108.744ZM255.833 120.979L251.801 143.521C250.985 148.082 249.256 151.221 246.613 152.937C243.964 154.686 240.401 155.114 235.922 154.222C233.47 153.733 231.194 152.923 229.095 151.791C226.989 150.691 225.361 149.382 224.211 147.861L227.118 144.668C228.14 145.959 229.481 147.076 231.14 148.019C232.827 149 234.618 149.68 236.514 150.058C239.554 150.664 241.923 150.388 243.619 149.231C245.349 148.081 246.478 146.029 247.006 143.076L247.375 141.008C246.023 142.132 244.468 142.876 242.711 143.239C240.991 143.576 239.184 143.556 237.288 143.178C234.803 142.683 232.642 141.708 230.802 140.254C229.002 138.774 227.7 136.968 226.896 134.837C226.098 132.673 225.919 130.361 226.359 127.9C226.8 125.439 227.762 123.371 229.246 121.696C230.737 119.988 232.573 118.808 234.755 118.155C236.97 117.509 239.319 117.433 241.804 117.928C243.765 118.319 245.515 119.042 247.053 120.096C248.624 121.157 249.822 122.5 250.649 124.126L251.371 120.09L255.833 120.979ZM238.567 139.151C240.266 139.49 241.851 139.432 243.321 138.977C244.823 138.529 246.064 137.74 247.045 136.61C248.064 135.454 248.721 134.055 249.014 132.415C249.466 129.888 248.996 127.687 247.605 125.813C246.219 123.906 244.219 122.692 241.604 122.17C238.956 121.643 236.657 122 234.708 123.243C232.765 124.453 231.568 126.321 231.116 128.848C230.822 130.488 230.934 132.04 231.451 133.502C232.007 134.938 232.891 136.151 234.102 137.14C235.346 138.135 236.834 138.806 238.567 139.151ZM278.749 125.291C282.05 125.949 284.493 127.438 286.075 129.758C287.696 132.052 288.175 135.053 287.512 138.761L284.827 153.773L280.12 152.835L282.708 138.364C283.159 135.838 282.895 133.814 281.914 132.294C280.934 130.773 279.316 129.788 277.06 129.338C274.51 128.83 272.365 129.184 270.624 130.4C268.888 131.584 267.771 133.57 267.273 136.359L264.869 149.796L260.162 148.858L264.828 122.772L269.339 123.671L268.635 127.608C269.823 126.452 271.283 125.672 273.014 125.27C274.778 124.873 276.689 124.881 278.749 125.291Z" fill="white"/>
</svg>
