<svg width="542" height="197" viewBox="0 0 542 197" fill="none" xmlns="http://www.w3.org/2000/svg">
<path d="M27.1275 94.9243L34.26 131.332L29.7393 132.183L28.9318 128.061C28.1655 129.698 27.0535 131.043 25.5957 132.098C24.138 133.152 22.4427 133.861 20.51 134.225C17.9876 134.699 15.6183 134.569 13.4021 133.833C11.186 133.096 9.30918 131.838 7.77173 130.059C6.26063 128.24 5.24874 126.023 4.73607 123.406C4.22341 120.789 4.32851 118.378 5.05139 116.173C5.80703 113.962 7.07503 112.112 8.85541 110.624C10.6358 109.135 12.7872 108.154 15.3096 107.679C17.1768 107.328 18.9671 107.364 20.6805 107.788C22.3875 108.179 23.8997 108.963 25.2171 110.14L22.4103 95.8119L27.1275 94.9243ZM20.0956 130.029C21.7335 129.721 23.1503 129.064 24.346 128.059C25.5353 127.021 26.3721 125.745 26.8564 124.229C27.3343 122.681 27.397 121.007 27.0446 119.208C26.6921 117.409 26.0046 115.893 24.982 114.661C23.953 113.396 22.6932 112.514 21.2027 112.014C19.7123 111.515 18.1481 111.419 16.5101 111.727C14.8395 112.041 13.4063 112.701 12.2106 113.706C11.0476 114.705 10.2108 115.982 9.70018 117.537C9.21588 119.052 9.14997 120.71 9.50242 122.509C9.85488 124.308 10.5456 125.84 11.5746 127.105C12.63 128.331 13.8897 129.213 15.3539 129.751C16.8443 130.251 18.4249 130.344 20.0956 130.029ZM61.1363 99.3106L54.112 130.293C53.5173 133.152 52.5722 135.263 51.2768 136.627C50.0142 137.983 48.3346 138.859 46.238 139.254C44.9604 139.494 43.674 139.516 42.3786 139.318C41.1224 139.148 40.0243 138.744 39.0843 138.107L40.4068 134.195C41.9998 135.218 43.6808 135.563 45.4498 135.23C46.5963 135.014 47.4854 134.525 48.1171 133.762C48.788 133.025 49.2904 131.862 49.6245 130.273L50.1041 128.3L33.5209 104.507L38.4347 103.582L51.6009 122.676L56.5173 100.18L61.1363 99.3106ZM79.3966 95.6202C82.7052 94.9977 85.5149 95.4695 87.8258 97.0358C90.1629 98.5632 91.6936 101.175 92.4178 104.872L95.3496 119.837L90.6324 120.725L87.8063 106.299C87.3128 103.78 86.3351 101.997 84.8731 100.949C83.4111 99.9016 81.55 99.5904 79.2897 100.016C76.7345 100.497 74.8672 101.628 73.6879 103.41C72.5021 105.159 72.1816 107.424 72.7263 110.205L75.3505 123.6L70.6333 124.488L65.5387 98.4822L70.0594 97.6316L70.8284 101.557C71.5156 100.037 72.5913 98.7662 74.0555 97.7445C75.5525 96.7167 77.3328 96.0086 79.3966 95.6202ZM108.42 90.1589C112.024 89.4808 114.949 89.8462 117.195 91.2551C119.473 92.6579 120.956 95.1093 121.641 98.6094L124.717 114.311L120.246 115.152L119.573 111.718C119.024 113.076 118.076 114.221 116.73 115.152C115.411 116.045 113.752 116.68 111.754 117.056C108.838 117.604 106.358 117.342 104.314 116.268C102.302 115.188 101.072 113.503 100.623 111.213C100.174 108.924 100.651 106.935 102.052 105.246C103.448 103.525 105.963 102.323 109.599 101.639L117.068 100.233L116.886 99.3008C116.488 97.2727 115.594 95.8298 114.204 94.9723C112.813 94.1147 110.971 93.9017 108.678 94.3332C107.138 94.6229 105.682 95.1681 104.311 95.9689C102.933 96.7369 101.819 97.6418 100.971 98.6833L98.3129 95.5203C99.4446 94.1881 100.89 93.0683 102.648 92.1609C104.4 91.2207 106.324 90.5534 108.42 90.1589ZM111.828 113.277C113.63 112.938 115.109 112.252 116.266 111.221C117.416 110.156 118.142 108.833 118.443 107.25L117.732 103.619L110.459 104.987C106.463 105.739 104.727 107.456 105.253 110.139C105.509 111.447 106.219 112.382 107.382 112.943C108.544 113.505 110.027 113.616 111.828 113.277ZM160.883 80.2871C164.158 79.6707 166.932 80.1324 169.204 81.6721C171.508 83.2057 173.026 85.8371 173.756 89.5662L176.688 104.532L171.971 105.419L169.145 90.9935C168.651 88.4748 167.69 86.6884 166.261 85.6346C164.864 84.5746 163.085 84.248 160.923 84.6548C158.532 85.1048 156.779 86.2147 155.665 87.9845C154.545 89.7216 154.257 91.9804 154.802 94.7608L157.426 108.156L152.709 109.044L149.883 94.6181C149.389 92.0993 148.428 90.3129 146.999 89.2591C145.602 88.1991 143.823 87.8725 141.661 88.2793C139.27 88.7293 137.517 89.8392 136.403 91.609C135.283 93.3461 134.995 95.6049 135.54 98.3853L138.164 111.781L133.447 112.668L128.352 86.6627L132.873 85.812L133.632 89.6883C134.32 88.1684 135.366 86.9201 136.771 85.9435C138.17 84.9341 139.852 84.2445 141.817 83.8746C143.848 83.4925 145.73 83.5623 147.463 84.0842C149.195 84.6061 150.641 85.572 151.8 86.9819C152.488 85.2923 153.617 83.8589 155.187 82.6817C156.789 81.4983 158.688 80.7001 160.883 80.2871ZM180.273 76.8928L184.99 76.0051L190.085 102.011L185.368 102.898L180.273 76.8928ZM181.651 71.4441C180.734 71.6167 179.907 71.4671 179.169 70.9955C178.464 70.5176 178.028 69.8534 177.861 69.0029C177.695 68.1524 177.849 67.3773 178.323 66.6775C178.824 65.9389 179.533 65.4833 180.45 65.3107C181.367 65.1381 182.178 65.2907 182.883 65.7686C183.614 66.2075 184.063 66.8523 184.23 67.7028C184.403 68.586 184.239 69.3969 183.739 70.1356C183.264 70.8353 182.569 71.2715 181.651 71.4441ZM210.5 98.4746C207.847 98.9739 205.36 98.8483 203.039 98.0979C200.751 97.3413 198.822 96.0763 197.251 94.3028C195.675 92.4966 194.637 90.3178 194.137 87.7663C193.637 85.2148 193.781 82.8303 194.57 80.613C195.352 78.363 196.665 76.4877 198.511 74.9872C200.384 73.4478 202.646 72.4284 205.3 71.9291C207.659 71.4853 209.848 71.5651 211.868 72.1686C213.921 72.7659 215.632 73.8685 217 75.4766L213.865 78.4577C212.802 77.3688 211.604 76.6276 210.27 76.2341C208.936 75.8407 207.532 75.7827 206.058 76.06C204.355 76.3806 202.889 77.0465 201.66 78.0577C200.465 79.0628 199.611 80.3426 199.101 81.8972C198.617 83.4128 198.551 85.0702 198.903 86.8694C199.262 88.7012 199.956 90.2496 200.985 91.5144C202.04 92.7403 203.313 93.6031 204.804 94.1027C206.327 94.5962 207.94 94.6827 209.644 94.3622C211.118 94.0848 212.4 93.5213 213.49 92.6717C214.581 91.8221 215.414 90.6987 215.989 89.3016L220.018 90.8837C219.355 92.8739 218.186 94.5354 216.511 95.8681C214.863 97.1619 212.859 98.0307 210.5 98.4746ZM247.886 91.4397C245.757 91.8403 243.655 91.9475 241.581 91.7613C239.5 91.5423 237.816 91.096 236.529 90.4224L237.764 86.3234C239.071 86.9255 240.591 87.3177 242.325 87.5002C244.059 87.6827 245.762 87.6167 247.432 87.3024C251.56 86.5257 253.393 84.9597 252.932 82.6045C252.778 81.8194 252.378 81.2503 251.731 80.8971C251.084 80.5439 250.316 80.3494 249.426 80.3134C248.562 80.2385 247.335 80.215 245.744 80.2431C243.583 80.3105 241.79 80.2579 240.363 80.0854C238.97 79.9067 237.698 79.3997 236.55 78.5644C235.401 77.7291 234.647 76.3955 234.289 74.5637C233.827 72.2084 234.441 70.1426 236.131 68.3662C237.815 66.557 240.311 65.3411 243.62 64.7186C245.356 64.3919 247.134 64.2778 248.953 64.3764C250.773 64.4749 252.31 64.7792 253.565 65.2893L252.28 69.3975C249.882 68.4243 247.241 68.2089 244.359 68.7513C242.36 69.1273 240.901 69.7411 239.981 70.5926C239.061 71.4441 238.707 72.4095 238.918 73.489C239.085 74.3395 239.511 74.9546 240.197 75.3344C240.883 75.7141 241.674 75.9383 242.57 76.007C243.5 76.0696 244.779 76.1001 246.409 76.0986C248.576 76.0639 250.34 76.139 251.701 76.3239C253.089 76.4698 254.337 76.9472 255.446 77.756C256.556 78.5647 257.284 79.8523 257.63 81.6187C258.091 83.974 257.444 86.046 255.689 87.8347C253.959 89.5846 251.359 90.7863 247.886 91.4397ZM259.882 61.9129L264.599 61.0253L269.694 87.0309L264.977 87.9186L259.882 61.9129ZM261.26 56.4642C260.343 56.6368 259.515 56.4873 258.778 56.0156C258.073 55.5377 257.637 54.8735 257.47 54.023C257.304 53.1725 257.457 52.3974 257.932 51.6976C258.432 50.959 259.141 50.5034 260.058 50.3308C260.976 50.1582 261.787 50.3108 262.492 50.7887C263.223 51.2277 263.672 51.8724 263.839 52.7229C264.012 53.6061 263.848 54.417 263.347 55.1557C262.873 55.8554 262.177 56.2916 261.26 56.4642ZM287.464 56.4685C290.772 55.8459 293.582 56.3177 295.893 57.884C298.23 59.4115 299.761 62.0234 300.485 65.7198L303.417 80.6853L298.7 81.5729L295.873 67.1471C295.38 64.6284 294.402 62.8451 292.94 61.7974C291.478 60.7498 289.617 60.4386 287.357 60.8639C284.802 61.3447 282.934 62.4762 281.755 64.2583C280.569 66.0077 280.249 68.2726 280.794 71.0531L283.418 84.4485L278.701 85.3361L273.606 59.3305L278.127 58.4798L278.896 62.4052C279.583 60.8853 280.659 59.6144 282.123 58.5928C283.62 57.5649 285.4 56.8568 287.464 56.4685ZM332.109 48.322L336.511 70.7948C337.402 75.3417 336.929 78.9073 335.091 81.4916C333.261 84.1086 330.101 85.8394 325.613 86.6838C323.156 87.1462 320.747 87.2434 318.385 86.9756C316.029 86.7406 314.041 86.131 312.422 85.1468L313.971 81.0905C315.388 81.9092 317.039 82.4465 318.923 82.7025C320.847 82.985 322.758 82.9475 324.658 82.5899C327.705 82.0167 329.808 80.8748 330.967 79.1642C332.159 77.4476 332.467 75.1172 331.89 72.1731L331.487 70.1123C330.636 71.6631 329.458 72.936 327.955 73.9312C326.478 74.8874 324.79 75.5443 322.89 75.9019C320.4 76.3703 318.037 76.2723 315.801 75.6077C313.591 74.9042 311.727 73.7117 310.209 72.0302C308.684 70.316 307.682 68.2321 307.201 65.7788C306.72 63.3254 306.868 61.0422 307.642 58.9292C308.411 56.7835 309.692 54.9992 311.485 53.5765C313.311 52.1475 315.469 51.1988 317.958 50.7303C319.924 50.3605 321.812 50.3782 323.624 50.7835C325.469 51.1826 327.069 51.9838 328.426 53.1869L327.637 49.1634L332.109 48.322ZM322.623 71.6785C324.326 71.358 325.779 70.7115 326.981 69.7391C328.216 68.7606 329.085 67.5625 329.589 66.145C330.118 64.6886 330.223 63.1426 329.903 61.507C329.409 58.9883 328.177 57.1173 326.205 55.8943C324.226 54.6385 321.927 54.2571 319.306 54.7503C316.653 55.2496 314.645 56.4415 313.282 58.326C311.912 60.1778 311.474 62.3631 311.967 64.8819C312.288 66.5175 312.953 67.9186 313.963 69.0853C314.999 70.2131 316.259 71.0105 317.743 71.4774C319.26 71.9382 320.886 72.0052 322.623 71.6785ZM339.084 36.2237L343.802 35.3361L350.934 71.744L346.217 72.6317L339.084 36.2237ZM380.959 52.7647C381.03 53.1245 381.09 53.605 381.14 54.2061L360.011 58.182C360.754 60.4163 362.115 62.0765 364.094 63.1626C366.1 64.2098 368.38 64.4929 370.935 64.0121C374.047 63.4266 376.348 61.9082 377.838 59.4572L381.038 62.0093C380.128 63.6051 378.859 64.9292 377.231 65.9818C375.636 67.0281 373.757 67.7547 371.595 68.1615C368.843 68.6793 366.294 68.5825 363.947 67.8709C361.593 67.1267 359.628 65.8515 358.051 64.0453C356.507 62.2329 355.486 60.051 354.986 57.4995C354.492 54.9807 354.604 52.6024 355.32 50.3647C356.07 48.1209 357.318 46.2579 359.066 44.7759C360.84 43.255 362.971 42.2603 365.461 41.7918C367.951 41.3233 370.274 41.4797 372.431 42.2609C374.614 43.0033 376.445 44.2868 377.924 46.1115C379.435 47.93 380.447 50.1478 380.959 52.7647ZM366.24 45.7663C363.979 46.1916 362.214 47.236 360.943 48.8996C359.706 50.5571 359.174 52.5226 359.347 54.7963L376.054 51.6526C375.363 49.5103 374.113 47.897 372.304 46.8128C370.521 45.6898 368.5 45.3409 366.24 45.7663ZM385.8 49.1066L399.018 46.6193L399.816 50.6919L386.597 53.1791L385.8 49.1066ZM417.983 31.9087C420.506 31.4341 422.875 31.5649 425.091 32.301C427.307 33.0372 429.168 34.2982 430.672 36.084C432.21 37.8637 433.235 40.062 433.748 42.6789C434.26 45.2958 434.142 47.7262 433.393 49.9701C432.67 52.1751 431.418 54.0217 429.638 55.5099C427.858 56.9981 425.706 57.9795 423.184 58.4541C421.317 58.8055 419.526 58.7693 417.813 58.3455C416.132 57.9156 414.617 57.1154 413.267 55.9449L415.9 69.3893L411.183 70.277L404.224 34.7522L408.744 33.9016L409.552 38.0232C410.318 36.3867 411.433 35.0576 412.898 34.0359C414.355 32.9814 416.051 32.2724 417.983 31.9087ZM421.983 54.4065C423.654 54.0921 425.071 53.4354 426.234 52.4365C427.423 51.3987 428.26 50.122 428.744 48.6063C429.255 47.0518 429.334 45.3749 428.981 43.5758C428.629 41.7767 427.925 40.2641 426.87 39.0382C425.841 37.7734 424.581 36.8911 423.09 36.3915C421.633 35.8857 420.068 35.79 418.398 36.1043C416.76 36.4125 415.346 37.0856 414.157 38.1234C412.994 39.1223 412.154 40.3827 411.637 41.9045C411.153 43.4202 411.087 45.0775 411.439 46.8767C411.792 48.6758 412.482 50.2078 413.511 51.4726C414.534 52.7047 415.794 53.587 417.291 54.1193C418.781 54.6189 420.345 54.7147 421.983 54.4065ZM446.914 26.465C450.517 25.7869 453.442 26.1523 455.688 27.5612C457.967 28.964 459.449 31.4154 460.134 34.9155L463.21 50.6171L458.739 51.4585L458.066 48.0238C457.517 49.382 456.569 50.527 455.224 51.4586C453.904 52.3513 452.245 52.9857 450.247 53.3617C447.331 53.9103 444.851 53.6478 442.807 52.574C440.795 51.4941 439.565 49.8093 439.116 47.5195C438.668 45.2297 439.144 43.2406 440.546 41.5524C441.941 39.8314 444.456 38.6288 448.093 37.9446L455.561 36.5392L455.379 35.6069C454.982 33.5788 454.087 32.136 452.697 31.2784C451.306 30.4208 449.464 30.2078 447.171 30.6393C445.631 30.929 444.176 31.4742 442.804 32.275C441.426 33.043 440.313 33.9479 439.464 34.9894L436.806 31.8265C437.938 30.4942 439.383 29.3744 441.141 28.467C442.893 27.5268 444.817 26.8595 446.914 26.465ZM450.322 49.5828C452.123 49.2438 453.602 48.5584 454.759 47.5268C455.909 46.4625 456.635 45.1388 456.936 43.5558L456.225 39.9248L448.952 41.2933C444.956 42.0453 443.22 43.7625 443.746 46.4448C444.002 47.7533 444.712 48.6882 445.875 49.2494C447.038 49.8107 448.52 49.9218 450.322 49.5828ZM491.902 18.2539L496.305 40.7267C497.196 45.2736 496.722 48.8392 494.885 51.4235C493.054 54.0405 489.894 55.7712 485.406 56.6157C482.95 57.078 480.54 57.1753 478.178 56.9075C475.822 56.6724 473.835 56.0628 472.215 55.0787L473.764 51.0224C475.181 51.8411 476.832 52.3784 478.716 52.6343C480.64 52.9168 482.552 52.8793 484.452 52.5218C487.498 51.9485 489.601 50.8066 490.761 49.0961C491.953 47.3794 492.26 45.049 491.684 42.105L491.28 40.0442C490.429 41.5949 489.252 42.8679 487.748 43.863C486.271 44.8193 484.583 45.4762 482.683 45.8337C480.193 46.3022 477.83 46.2041 475.594 45.5395C473.385 44.8361 471.521 43.6436 470.002 41.962C468.478 40.2478 467.475 38.164 466.994 35.7106C466.514 33.2573 466.661 30.9741 467.436 28.8611C468.204 26.7153 469.485 24.9311 471.278 23.5083C473.104 22.0794 475.262 21.1307 477.752 20.6622C479.717 20.2923 481.606 20.3101 483.417 20.7153C485.262 21.1145 486.862 21.9156 488.219 23.1188L487.431 19.0953L491.902 18.2539ZM482.416 41.6104C484.119 41.2898 485.572 40.6434 486.774 39.671C488.009 38.6924 488.878 37.4944 489.382 36.0769C489.912 34.6205 490.016 33.0745 489.696 31.4389C489.203 28.9201 487.97 27.0492 485.998 25.8261C484.02 24.5703 481.72 24.189 479.1 24.6821C476.446 25.1814 474.438 26.3733 473.075 28.2579C471.705 30.1097 471.267 32.295 471.761 34.8138C472.081 36.4493 472.746 37.8505 473.756 39.0172C474.792 40.145 476.052 40.9423 477.536 41.4093C479.053 41.87 480.68 41.9371 482.416 41.6104ZM527.029 25.279C527.099 25.6388 527.159 26.1193 527.209 26.7204L506.08 30.6963C506.823 32.9306 508.185 34.5908 510.164 35.6769C512.169 36.724 514.449 37.0072 517.004 36.5264C520.116 35.9408 522.417 34.4225 523.907 31.9715L527.107 34.5236C526.197 36.1194 524.928 37.4435 523.3 38.4961C521.705 39.5424 519.826 40.269 517.664 40.6758C514.913 41.1936 512.363 41.0967 510.016 40.3852C507.662 39.641 505.697 38.3658 504.121 36.5596C502.577 34.7472 501.555 32.5652 501.055 30.0137C500.562 27.495 500.673 25.1167 501.39 22.879C502.139 20.6352 503.387 18.7722 505.135 17.2902C506.909 15.7693 509.041 14.7746 511.53 14.3061C514.02 13.8376 516.343 13.994 518.5 14.7752C520.684 15.5176 522.515 16.8011 523.993 18.6258C525.504 20.4443 526.516 22.662 527.029 25.279ZM512.309 18.2805C510.049 18.7059 508.283 19.7503 507.013 21.4139C505.775 23.0714 505.243 25.0369 505.417 27.3106L522.123 24.1669C521.432 22.0246 520.182 20.4113 518.373 19.3271C516.591 18.2041 514.569 17.8552 512.309 18.2805ZM235.885 155.767C233.755 156.168 231.653 156.275 229.579 156.088C227.498 155.87 225.814 155.423 224.527 154.75L225.762 150.651C227.069 151.253 228.59 151.645 230.324 151.827C232.058 152.01 233.76 151.944 235.431 151.63C239.558 150.853 241.391 149.287 240.93 146.932C240.776 146.147 240.376 145.577 239.729 145.224C239.083 144.871 238.314 144.677 237.424 144.641C236.56 144.566 235.333 144.542 233.742 144.57C231.581 144.638 229.788 144.585 228.361 144.413C226.968 144.234 225.697 143.727 224.548 142.892C223.399 142.056 222.646 140.723 222.287 138.891C221.825 136.536 222.44 134.47 224.13 132.693C225.813 130.884 228.309 129.668 231.618 129.046C233.354 128.719 235.132 128.605 236.951 128.704C238.771 128.802 240.308 129.106 241.563 129.616L240.279 133.725C237.88 132.751 235.24 132.536 232.357 133.079C230.359 133.455 228.899 134.068 227.979 134.92C227.059 135.771 226.705 136.737 226.916 137.816C227.083 138.667 227.509 139.282 228.195 139.662C228.881 140.041 229.672 140.265 230.569 140.334C231.498 140.397 232.778 140.427 234.408 140.426C236.575 140.391 238.339 140.466 239.7 140.651C241.087 140.797 242.335 141.274 243.445 142.083C244.554 142.892 245.282 144.179 245.628 145.946C246.089 148.301 245.442 150.373 243.687 152.162C241.958 153.912 239.357 155.113 235.885 155.767ZM247.88 126.24L252.597 125.352L257.692 151.358L252.975 152.246L247.88 126.24ZM249.258 120.791C248.341 120.964 247.514 120.814 246.776 120.343C246.071 119.865 245.635 119.201 245.468 118.35C245.302 117.5 245.456 116.725 245.93 116.025C246.431 115.286 247.139 114.831 248.057 114.658C248.974 114.485 249.785 114.638 250.49 115.116C251.221 115.555 251.67 116.2 251.837 117.05C252.01 117.933 251.846 118.744 251.346 119.483C250.871 120.183 250.175 120.619 249.258 120.791ZM281.044 145.387C280.471 146.105 279.709 146.723 278.758 147.242C277.8 147.727 276.78 148.072 275.699 148.275C273.079 148.768 270.91 148.447 269.193 147.312C267.476 146.176 266.361 144.3 265.849 141.683L263.051 127.405L258.629 128.237L257.87 124.36L262.292 123.528L261.177 117.836L265.894 116.949L267.009 122.641L274.478 121.235L275.238 125.111L267.769 126.517L270.527 140.599C270.803 142.006 271.358 143.021 272.194 143.643C273.062 144.26 274.151 144.445 275.461 144.199C276.903 143.928 278.051 143.287 278.906 142.279L281.044 145.387ZM307.2 128.713C307.27 129.073 307.33 129.553 307.38 130.154L286.251 134.13C286.994 136.364 288.355 138.025 290.334 139.111C292.34 140.158 294.62 140.441 297.175 139.96C300.287 139.375 302.588 137.856 304.078 135.405L307.278 137.957C306.368 139.553 305.099 140.877 303.471 141.93C301.876 142.976 299.997 143.703 297.835 144.11C295.084 144.627 292.534 144.531 290.187 143.819C287.833 143.075 285.868 141.8 284.292 139.993C282.748 138.181 281.726 135.999 281.226 133.448C280.733 130.929 280.844 128.551 281.561 126.313C282.31 124.069 283.558 122.206 285.306 120.724C287.08 119.203 289.212 118.208 291.701 117.74C294.191 117.271 296.514 117.428 298.671 118.209C300.855 118.951 302.686 120.235 304.164 122.06C305.675 123.878 306.687 126.096 307.2 128.713ZM292.48 121.714C290.22 122.14 288.454 123.184 287.184 124.848C285.946 126.505 285.414 128.471 285.588 130.744L302.294 127.601C301.603 125.458 300.353 123.845 298.544 122.761C296.762 121.638 294.74 121.289 292.48 121.714ZM323.795 139.225C321.666 139.626 319.564 139.733 317.489 139.546C315.408 139.328 313.725 138.881 312.438 138.208L313.673 134.109C314.979 134.711 316.5 135.103 318.234 135.285C319.968 135.468 321.67 135.402 323.341 135.088C327.469 134.311 329.302 132.745 328.84 130.39C328.686 129.605 328.286 129.035 327.64 128.682C326.993 128.329 326.225 128.135 325.334 128.099C324.471 128.024 323.243 128 321.652 128.028C319.492 128.096 317.698 128.043 316.272 127.871C314.878 127.692 313.607 127.185 312.458 126.35C311.31 125.514 310.556 124.181 310.197 122.349C309.736 119.994 310.35 117.928 312.04 116.151C313.723 114.342 316.22 113.126 319.528 112.504C321.264 112.177 323.042 112.063 324.862 112.162C326.681 112.26 328.218 112.564 329.473 113.074L328.189 117.183C325.791 116.209 323.15 115.994 320.267 116.537C318.269 116.913 316.81 117.526 315.89 118.378C314.97 119.229 314.615 120.195 314.827 121.274C314.993 122.125 315.42 122.74 316.105 123.12C316.791 123.499 317.582 123.723 318.479 123.792C319.408 123.855 320.688 123.885 322.318 123.884C324.485 123.849 326.249 123.924 327.61 124.109C328.997 124.255 330.245 124.732 331.355 125.541C332.464 126.35 333.192 127.637 333.538 129.404C334 131.759 333.353 133.831 331.597 135.62C329.868 137.37 327.267 138.571 323.795 139.225Z" fill="white"/>
</svg>
