<svg width="168" height="158" viewBox="0 0 168 158" fill="none" xmlns="http://www.w3.org/2000/svg">
<path d="M21.1889 61.3465C18.6716 62.718 18.0817 64.8021 19.4191 67.5988L20.4113 69.6737L27.1729 65.9899L28.8771 69.5534L22.2033 73.1894L31.9318 93.5329L27.7167 95.8293L17.9882 75.4858L14.0366 77.6387L12.3325 74.0752L16.2841 71.9223L15.2703 69.8022C14.1342 67.4266 13.9087 65.1803 14.5936 63.0634C15.2786 60.9465 16.8358 59.2263 19.2653 57.9026C20.202 57.3923 21.1376 57.0342 22.0723 56.8282C23.0069 56.6223 23.8748 56.5854 24.6759 56.7175L24.9773 60.7041C23.6518 60.4785 22.3891 60.6927 21.1889 61.3465ZM40.6234 63.7224C40.6936 61.9404 41.2733 60.2978 42.3625 58.7947C43.4516 57.2915 45.0207 55.9818 47.0697 54.8655L49.0758 59.0605C48.8272 59.158 48.498 59.3184 48.0883 59.5417C45.8051 60.7856 44.3429 62.473 43.7016 64.604C43.0752 66.689 43.3803 69.0246 44.6171 71.6107L50.3118 83.5191L46.0968 85.8155L34.6642 61.9085L38.7036 59.7078L40.6234 63.7224ZM78.9704 53.0082C79.1286 53.3389 79.3079 53.7909 79.5082 54.3641L60.6284 64.6502C61.8984 66.6117 63.6037 67.8243 65.7442 68.2881C67.8995 68.7059 70.1188 68.2929 72.4019 67.049C75.1827 65.534 76.9617 63.3517 77.7391 60.5022L81.4035 62.0311C80.9537 63.8682 80.0967 65.5481 78.8325 67.0708C77.5975 68.5776 76.014 69.8573 74.0821 70.9098C71.6234 72.2494 69.1982 72.9262 66.8067 72.9404C64.4007 72.9244 62.2251 72.2713 60.2797 70.981C58.3636 69.6747 56.8447 67.8487 55.7231 65.5031C54.6157 63.1876 54.1139 60.8265 54.2175 58.4199C54.3504 55.9973 55.0505 53.7963 56.3178 51.817C57.6 49.7917 59.3534 48.1731 61.578 46.9611C63.8026 45.7491 66.0301 45.1989 68.2604 45.3105C70.5056 45.3761 72.557 46.078 74.4145 47.4162C76.3013 48.7384 77.82 50.6024 78.9704 53.0082ZM63.3253 50.6148C61.3056 51.7152 59.9099 53.2716 59.1381 55.2842C58.3956 57.2808 58.3962 59.3653 59.14 61.5377L74.0682 53.4046C72.8705 51.5174 71.2818 50.317 69.3021 49.8035C67.3373 49.244 65.345 49.5144 63.3253 50.6148ZM97.2782 58.2722C95.3756 59.3088 93.4239 60.0499 91.4232 60.4955C89.408 60.9111 87.7087 60.984 86.3252 60.7142L86.4421 56.3292C87.8261 56.5229 89.3577 56.4465 91.037 56.1002C92.7163 55.754 94.3023 55.1741 95.7951 54.3608C99.4833 52.3515 100.81 50.2642 99.7743 48.099C99.4291 47.3773 98.9071 46.9415 98.2081 46.7916C97.5092 46.6417 96.7361 46.6839 95.8887 46.9181C95.0563 47.1062 93.8947 47.4548 92.4039 47.9638C90.3868 48.6837 88.6847 49.1751 87.2976 49.438C85.9398 49.685 84.6136 49.5736 83.3189 49.1038C82.0243 48.6341 80.9743 47.5572 80.169 45.8732C79.1335 43.708 79.1848 41.5005 80.3227 39.2505C81.4462 36.9705 83.4861 35.0252 86.4425 33.4145C87.9939 32.5693 89.6387 31.9196 91.377 31.4653C93.1154 31.011 94.6403 30.8435 95.9519 30.9629L95.7911 35.3719C93.2845 35.1454 90.7433 35.7339 88.1674 37.1373C86.3819 38.11 85.1646 39.1523 84.5155 40.2641C83.8665 41.3758 83.7792 42.4279 84.2538 43.4202C84.6277 44.2021 85.1859 44.675 85.9285 44.8391C86.6711 45.0031 87.4733 44.983 88.335 44.7789C89.226 44.5588 90.4387 44.2014 91.9731 43.7066C94.0046 43.0167 95.6847 42.5563 97.0132 42.3253C98.3566 42.0482 99.6538 42.1375 100.905 42.5932C102.156 43.0488 103.17 44.0885 103.946 45.7124C104.982 47.8776 104.901 50.1011 103.705 52.3829C102.523 54.6187 100.381 56.5818 97.2782 58.2722ZM113.356 18.7515C116.313 17.1408 119.078 16.7521 121.654 17.5855C124.244 18.3728 126.352 20.4655 127.977 23.8636L134.556 37.6214L130.341 39.9178L123.999 26.6562C122.892 24.3407 121.516 22.8915 119.872 22.3088C118.229 21.7261 116.397 21.9849 114.377 23.0852C112.094 24.3291 110.625 26.0015 109.969 28.1025C109.299 30.1733 109.575 32.4868 110.797 35.0429L116.686 47.3573L112.471 49.6537L96.4655 16.1839L100.68 13.8874L106.871 26.8333C107.203 25.2122 107.92 23.7031 109.023 22.3061C110.156 20.8932 111.6 19.7083 113.356 18.7515ZM55.8035 119.76L57.0498 149.217L52.7469 151.561L31.128 133.204L35.5187 130.812L52.6773 145.629L51.6763 122.009L55.8035 119.76ZM59.7373 117.617L63.9523 115.321L75.3849 139.228L71.1699 141.524L59.7373 117.617ZM59.6445 111.868C58.825 112.315 58.0077 112.419 57.1927 112.18C56.4069 111.926 55.8271 111.408 55.4532 110.626C55.0793 109.844 55.0264 109.039 55.2944 108.211C55.5773 107.337 56.1286 106.676 56.9482 106.23C57.7678 105.783 58.5704 105.687 59.3561 105.941C60.1568 106.149 60.744 106.644 61.1179 107.426C61.5062 108.238 61.5589 109.081 61.276 109.956C61.0079 110.784 60.4641 111.422 59.6445 111.868ZM90.236 131.478C88.3334 132.514 86.3818 133.256 84.381 133.701C82.3659 134.117 80.6666 134.19 79.2831 133.92L79.4 129.535C80.784 129.728 82.3156 129.652 83.9949 129.306C85.6741 128.96 87.2602 128.38 88.753 127.566C92.4412 125.557 93.7675 123.47 92.7321 121.305C92.387 120.583 91.8649 120.147 91.166 119.997C90.4671 119.847 89.6939 119.889 88.8466 120.124C88.0142 120.312 86.8526 120.66 85.3618 121.169C83.3446 121.889 81.6425 122.381 80.2555 122.644C78.8977 122.891 77.5714 122.779 76.2768 122.309C74.9821 121.84 73.9321 120.763 73.1268 119.079C72.0914 116.914 72.1427 114.706 73.2806 112.456C74.4041 110.176 76.444 108.231 79.4004 106.62C80.9518 105.775 82.5966 105.125 84.3349 104.671C86.0732 104.217 87.5982 104.049 88.9098 104.169L88.749 108.577C86.2424 108.351 83.7011 108.94 81.1253 110.343C79.3398 111.316 78.1225 112.358 77.4734 113.47C76.8243 114.581 76.7371 115.633 77.2117 116.626C77.5856 117.408 78.1438 117.881 78.8864 118.045C79.629 118.209 80.4311 118.189 81.2928 117.985C82.1838 117.764 83.3965 117.407 84.931 116.912C86.9625 116.222 88.6425 115.762 89.971 115.531C91.3144 115.254 92.6117 115.343 93.8627 115.799C95.1137 116.254 96.1275 117.294 96.904 118.918C97.9394 121.083 97.8589 123.307 96.6625 125.589C95.4809 127.824 93.3388 129.787 90.236 131.478ZM93.9964 98.9523L98.2114 96.6559L109.644 120.563L105.429 122.859L93.9964 98.9523ZM93.9037 93.2031C93.0841 93.6496 92.2668 93.7538 91.4518 93.5155C90.666 93.2612 90.0862 92.7432 89.7123 91.9613C89.3384 91.1794 89.2855 90.3743 89.5535 89.546C89.8364 88.6716 90.3877 88.0112 91.2073 87.5647C92.0269 87.1181 92.8295 87.022 93.6153 87.2762C94.4159 87.4845 95.0031 87.9795 95.377 88.7614C95.7653 89.5733 95.818 90.4164 95.5351 91.2908C95.267 92.1191 94.7232 92.7566 93.9037 93.2031ZM127.788 111.019C125.476 112.279 123.146 112.885 120.798 112.837C118.451 112.789 116.312 112.135 114.381 110.875C112.465 109.568 110.946 107.742 109.824 105.397C108.703 103.051 108.215 100.682 108.363 98.2897C108.525 95.8511 109.283 93.6183 110.639 91.5912C111.979 89.534 113.806 87.8755 116.118 86.6156C118.431 85.3558 120.746 84.7577 123.064 84.8215C125.397 84.8393 127.522 85.5013 129.438 86.8076C131.369 88.0679 132.895 89.8708 134.017 92.2164C135.138 94.562 135.618 96.954 135.456 99.3926C135.309 101.785 134.565 104.01 133.224 106.067C131.913 108.108 130.101 109.759 127.788 111.019ZM125.976 107.23C127.469 106.416 128.635 105.345 129.476 104.015C130.331 102.64 130.793 101.137 130.862 99.5074C130.917 97.8476 130.549 96.1907 129.758 94.5367C128.967 92.8828 127.933 91.6077 126.656 90.7115C125.364 89.7852 123.953 89.3031 122.422 89.2653C120.92 89.2116 119.423 89.5913 117.93 90.4047C116.437 91.218 115.256 92.2974 114.387 93.6429C113.547 94.9724 113.085 96.4751 113.001 98.1509C112.931 99.7807 113.292 101.423 114.083 103.077C114.874 104.73 115.915 106.021 117.207 106.947C118.513 107.827 119.925 108.309 121.441 108.393C122.972 108.431 124.483 108.043 125.976 107.23ZM146.447 70.0918C149.404 68.4811 152.17 68.0924 154.745 68.9258C157.335 69.7131 159.443 71.8058 161.068 75.2039L167.647 88.9617L163.432 91.2581L157.09 77.9965C155.983 75.681 154.608 74.2319 152.964 73.6491C151.32 73.0664 149.488 73.3252 147.468 74.4255C145.185 75.6694 143.716 77.3419 143.06 79.4428C142.39 81.5136 142.666 83.8271 143.888 86.3832L149.777 98.6976L145.562 100.994L134.13 77.087L138.169 74.8862L139.895 78.4949C140.154 76.7994 140.843 75.2302 141.961 73.7872C143.108 72.3283 144.603 71.0965 146.447 70.0918Z" fill="white"/>
</svg>
