<svg width="265" height="160" viewBox="0 0 265 160" fill="none" xmlns="http://www.w3.org/2000/svg">
<path d="M9.37575 108.172L18.4043 104.91L34.4283 155.429L25.3996 158.692L9.37575 108.172ZM10.8062 96.8183C9.05064 97.4527 7.39582 97.4132 5.84174 96.6999C4.35036 95.9639 3.34264 94.7697 2.81859 93.1175C2.29454 91.4653 2.4154 89.8634 3.18117 88.3117C3.98948 86.6739 5.27142 85.5377 7.02698 84.9033C8.78254 84.269 10.406 84.3198 11.8974 85.0558C13.4313 85.7056 14.4603 86.8566 14.9844 88.5088C15.5286 90.2246 15.3965 91.9014 14.5882 93.5393C13.8224 95.0909 12.5618 96.184 10.8062 96.8183ZM76.2574 61.48L98.6909 132.207L90.0385 135.334L87.4989 127.327C86.3794 130.848 84.5153 133.895 81.9066 136.466C79.298 139.038 76.1441 140.992 72.4448 142.329C67.617 144.074 62.9482 144.557 58.4383 143.778C53.9284 143 49.9614 141.069 46.5375 137.985C43.1561 134.816 40.6591 130.689 39.0466 125.605C37.4342 120.522 37.0791 115.657 37.9813 111.01C38.9463 106.34 40.9984 102.235 44.1377 98.6918C47.277 95.1492 51.2606 92.5056 56.0884 90.761C59.6622 89.4696 63.1756 88.9791 66.6285 89.2896C70.0614 89.5366 73.2042 90.6321 76.0571 92.576L67.2288 64.7425L76.2574 61.48ZM70.6576 134.05C73.7925 132.918 76.4135 131.156 78.5206 128.765C80.6075 126.311 81.9487 123.489 82.5442 120.299C83.1196 117.046 82.853 113.671 81.7444 110.176C80.6358 106.681 78.9372 103.86 76.6486 101.712C74.3399 99.5004 71.6684 98.1284 68.6341 97.5958C65.5999 97.0631 62.5153 97.3632 59.3804 98.496C56.1828 99.6515 53.5304 101.425 51.4234 103.815C49.379 106.183 48.0378 109.005 47.3997 112.281C46.8042 115.471 47.0607 118.814 48.1693 122.309C49.2779 125.804 50.9865 128.657 53.2953 130.869C55.6466 132.994 58.3181 134.366 61.3098 134.985C64.344 135.517 67.46 135.206 70.6576 134.05ZM152.902 84.7817C153.123 85.4807 153.353 86.4248 153.59 87.6139L113.15 102.228C115.125 106.472 118.176 109.371 122.303 110.926C126.473 112.394 131.003 112.244 135.893 110.477C141.849 108.325 146.001 104.558 148.347 99.1768L155.206 103.285C153.796 106.77 151.619 109.823 148.677 112.445C145.798 115.043 142.289 117.091 138.151 118.586C132.884 120.489 127.87 121.097 123.109 120.409C118.329 119.657 114.185 117.719 110.678 114.595C107.234 111.448 104.726 107.396 103.154 102.44C101.602 97.5468 101.267 92.7451 102.149 88.0349C103.093 83.302 105.104 79.1755 108.181 75.6556C111.3 72.0494 115.242 69.3853 120.007 67.6634C124.772 65.9415 129.357 65.5242 133.762 66.4116C138.209 67.2128 142.092 69.2095 145.411 72.4017C148.792 75.5713 151.289 79.698 152.902 84.7817ZM122.456 75.3843C118.13 76.9476 114.917 79.5962 112.816 83.33C110.779 87.0412 110.194 91.148 111.063 95.6504L143.04 84.0955C141.188 80.0191 138.365 77.1789 134.572 75.5748C130.821 73.8845 126.782 73.821 122.456 75.3843ZM173.958 48.1676C180.855 45.6754 186.666 45.488 191.391 47.6054C196.179 49.7002 199.651 54.1474 201.807 60.9469L211.482 91.4493L202.924 94.5419L200.808 87.8695C200.049 90.7645 198.46 93.3573 196.042 95.6477C193.666 97.852 190.566 99.6452 186.741 101.027C181.161 103.044 176.245 103.297 171.992 101.788C167.802 100.257 165.002 97.2667 163.591 92.8184C162.18 88.3701 162.65 84.2338 165.001 80.4093C167.332 76.5213 171.978 73.3199 178.937 70.805L193.232 65.6392L192.658 63.8281C191.408 59.8882 189.322 57.2776 186.4 55.9962C183.478 54.7148 179.822 54.8671 175.433 56.4531C172.486 57.5179 169.764 59.0685 167.265 61.1048C164.745 63.0776 162.776 65.2412 161.356 67.5958L155.418 62.0921C157.323 59.0662 159.892 56.3673 163.123 53.9956C166.334 51.5603 169.946 49.6177 173.958 48.1676ZM186.008 93.4298C189.457 92.1837 192.193 90.3449 194.217 87.9135C196.221 85.4186 197.334 82.5374 197.556 79.27L195.319 72.2163L181.399 77.2461C173.75 80.0102 170.752 83.9977 172.405 89.2085C173.211 91.7504 174.818 93.4009 177.225 94.1602C179.632 94.9194 182.56 94.6759 186.008 93.4298ZM242.667 80.8178C238.592 82.2905 234.502 83.1664 230.397 83.4455C226.273 83.6611 222.872 83.2961 220.196 82.3507L221.66 73.747C224.359 74.5427 227.427 74.8507 230.864 74.671C234.301 74.4914 237.618 73.8238 240.816 72.6684C248.716 69.8136 251.941 66.0986 250.489 61.5232C250.006 59.9981 249.09 58.9833 247.742 58.4788C246.394 57.9743 244.844 57.8259 243.093 58.0337C241.384 58.1553 238.976 58.4944 235.868 59.0509C231.654 59.8654 228.13 60.3241 225.298 60.4269C222.528 60.5071 219.921 59.8907 217.478 58.5778C215.035 57.2649 213.249 54.8291 212.12 51.2705C210.669 46.6952 211.391 42.3615 214.286 38.2696C217.161 34.1142 221.765 30.8923 228.098 28.6039C231.421 27.4031 234.875 26.6154 238.46 26.2407C242.045 25.866 245.125 25.9925 247.7 26.6202L246.142 35.2579C241.22 34.0616 236 34.4604 230.483 36.4542C226.658 37.8362 223.944 39.5252 222.341 41.5212C220.738 43.5171 220.269 45.5636 220.934 47.6607C221.458 49.3129 222.435 50.4117 223.866 50.9571C225.297 51.5024 226.898 51.703 228.67 51.5588C230.503 51.3919 233.016 51.0506 236.207 50.535C240.441 49.784 243.912 49.3797 246.619 49.3222C249.369 49.1785 251.924 49.7427 254.284 51.0147C256.645 52.2867 258.369 54.6385 259.457 58.07C260.909 62.6453 260.124 67.0016 257.103 71.1389C254.125 75.1899 249.313 78.4162 242.667 80.8178Z" fill="white"/>
</svg>
